<?xml version="1.0" encoding="UTF-8"?>
<svg id="Layer_1" xmlns="http://www.w3.org/2000/svg" version="1.1" viewBox="0 0 377.15 192.36">
  <!-- Generator: Adobe Illustrator 29.8.4, SVG Export Plug-In . SVG Version: 2.1.1 Build 6)  -->
  <defs>
    <style>
      .st0 {
        fill: #0099d7;
      }

      .st1 {
        fill: #00254f;
      }
    </style>
  </defs>
  <g>
    <g>
      <path class="st0" d="M189.69,157.59c-.9-.48-1.65-1.22-2.25-2.22l1.76-1.29c.45.86,1.02,1.49,1.69,1.88.67.39,1.51.59,2.52.59,1.47,0,2.64-.31,3.5-.93.86-.62,1.29-1.45,1.29-2.48,0-.5-.18-.9-.53-1.2-.35-.3-.8-.53-1.33-.69-.53-.16-1.29-.35-2.26-.55l-.54-.12c-1.25-.28-2.22-.73-2.89-1.35-.67-.62-1.01-1.47-1.01-2.55s.26-1.98.79-2.79c.53-.81,1.27-1.43,2.25-1.88.97-.45,2.12-.67,3.43-.67,1.41,0,2.58.23,3.5.68.92.45,1.59,1.11,2,1.98l-1.72,1.22c-.83-1.41-2.13-2.12-3.9-2.12-1.25,0-2.25.3-2.98.91-.73.6-1.09,1.41-1.09,2.41,0,.74.29,1.27.87,1.61.58.34,1.4.61,2.47.81,1.11.24,2.02.47,2.72.72.7.24,1.29.64,1.78,1.18.49.54.73,1.27.73,2.2,0,1.07-.29,2.01-.88,2.82-.59.82-1.43,1.45-2.52,1.89-1.09.45-2.37.67-3.85.67s-2.66-.24-3.56-.72Z"/>
      <path class="st0" d="M204.24,157.1c-1-.81-1.51-1.96-1.51-3.47,0-.36.04-.8.12-1.32l.89-4.99c.34-1.98,1.14-3.47,2.4-4.48,1.25-1.01,2.92-1.52,5.01-1.52,1.87,0,3.3.41,4.3,1.22,1,.82,1.51,1.97,1.51,3.46,0,.36-.04.8-.12,1.32l-.87,4.99c-.36,1.98-1.16,3.47-2.4,4.48-1.24,1.01-2.9,1.52-4.99,1.52-1.9,0-3.35-.4-4.35-1.21ZM212.06,155.45c.87-.73,1.43-1.78,1.68-3.14l.87-4.99c.06-.33.09-.68.09-1.06,0-1.02-.31-1.8-.94-2.35-.63-.55-1.54-.82-2.73-.82-1.38,0-2.51.37-3.39,1.11-.88.74-1.43,1.78-1.67,3.13l-.89,4.99c-.06.33-.09.68-.09,1.06,0,1.02.31,1.8.94,2.35.63.55,1.54.82,2.73.82,1.4,0,2.53-.36,3.4-1.09Z"/>
      <path class="st0" d="M219.89,157.16c-.77-.6-1.15-1.51-1.15-2.73,0-.5.04-.96.12-1.36l2.05-11.48h2.23l-2.05,11.48c-.06.47-.09.78-.09.94,0,.77.22,1.34.66,1.72.44.38,1.12.56,2.05.56h5.32l-.31,1.76h-5.22c-1.63,0-2.83-.3-3.6-.89Z"/>
      <path class="st0" d="M232.48,157.26c-1.02-.71-1.53-1.7-1.53-2.95,0-.17.03-.46.09-.87l2.09-11.85h2.23l-2.09,11.85c-.03.14-.05.35-.05.61,0,.8.31,1.42.92,1.85.61.43,1.5.65,2.66.65,1.32,0,2.38-.27,3.19-.8.81-.53,1.3-1.3,1.47-2.31l2.09-11.85h2.23l-2.09,11.85c-.28,1.55-1.02,2.76-2.21,3.61-1.19.85-2.78,1.28-4.75,1.28-1.82,0-3.24-.36-4.26-1.07Z"/>
      <path class="st0" d="M252.64,143.35h-5.2l.31-1.76h12.65l-.31,1.76h-5.22l-2.59,14.7h-2.23l2.59-14.7Z"/>
      <path class="st1" d="M262.62,141.59h2.23l-2.89,16.46h-2.23l2.89-16.46Z"/>
      <path class="st1" d="M267.74,157.1c-1-.81-1.51-1.96-1.51-3.47,0-.36.04-.8.12-1.32l.89-4.99c.34-1.98,1.14-3.47,2.4-4.48,1.25-1.01,2.92-1.52,5.01-1.52,1.87,0,3.3.41,4.3,1.22,1,.82,1.51,1.97,1.51,3.46,0,.36-.04.8-.12,1.32l-.87,4.99c-.36,1.98-1.16,3.47-2.4,4.48-1.24,1.01-2.9,1.52-4.99,1.52-1.9,0-3.35-.4-4.35-1.21ZM275.57,155.45c.87-.73,1.43-1.78,1.68-3.14l.87-4.99c.06-.33.09-.68.09-1.06,0-1.02-.31-1.8-.94-2.35-.63-.55-1.54-.82-2.73-.82-1.38,0-2.51.37-3.39,1.11-.88.74-1.43,1.78-1.67,3.13l-.89,4.99c-.06.33-.09.68-.09,1.06,0,1.02.31,1.8.94,2.35.63.55,1.54.82,2.73.82,1.4,0,2.53-.36,3.4-1.09Z"/>
      <path class="st0" d="M297.73,141.59l-2.38,13.55c-.17.99-.51,1.72-1,2.2-.49.48-1.16.72-2.01.72h-1.58l-4.49-13.03-2.28,13.03h-2.12l2.89-16.46h2.59l4.92,14.54h.14c.24,0,.42-.09.55-.28.13-.19.24-.53.32-1.04l2.33-13.22h2.12Z"/>
      <path class="st0" d="M300.08,157.59c-.9-.48-1.65-1.22-2.25-2.22l1.76-1.29c.45.86,1.02,1.49,1.69,1.88.67.39,1.51.59,2.52.59,1.47,0,2.64-.31,3.5-.93.86-.62,1.29-1.45,1.29-2.48,0-.5-.18-.9-.53-1.2-.35-.3-.8-.53-1.33-.69-.53-.16-1.29-.35-2.26-.55l-.54-.12c-1.25-.28-2.22-.73-2.89-1.35-.67-.62-1.01-1.47-1.01-2.55s.26-1.98.79-2.79c.53-.81,1.27-1.43,2.25-1.88.97-.45,2.12-.67,3.43-.67,1.41,0,2.58.23,3.5.68.93.45,1.59,1.11,2,1.98l-1.72,1.22c-.83-1.41-2.13-2.12-3.9-2.12-1.25,0-2.25.3-2.98.91s-1.09,1.41-1.09,2.41c0,.74.29,1.27.87,1.61.58.34,1.4.61,2.47.81,1.11.24,2.02.47,2.72.72.7.24,1.29.64,1.78,1.18.49.54.73,1.27.73,2.2,0,1.07-.29,2.01-.88,2.82-.59.82-1.43,1.45-2.52,1.89-1.09.45-2.37.67-3.85.67s-2.66-.24-3.56-.72Z"/>
    </g>
    <polygon class="st1" points="228.67 82.21 228.15 84.85 324.6 84.85 325.26 82.21 228.67 82.21"/>
  </g>
  <path class="st1" d="M200.27,102.22c-.97-2.05-2.28-3.57-3.94-4.57-1.65-1-3.5-1.5-5.55-1.5-1.57,0-3.02.3-4.33.91-1.31.6-2.59,1.48-3.82,2.64-.92.87-1.9,1.86-2.93,2.99h-.42l1.18-6.06h-2.13l-11.89,1.18v2.36c1.1-.1,1.92-.16,2.44-.16,1.1,0,1.88.18,2.32.55.45.37.67.94.67,1.73,0,.26-.01.51-.04.75-.03.24-.07.49-.12.75l-.88,4.21s-2.13,10.29-7.52,17.13c-.37.42-.83.94-1.38,1.57-.55.63-1.17,1.17-1.85,1.61-.68.45-1.44.67-2.28.67-.63,0-1.05-.17-1.26-.51-.21-.34-.32-.77-.32-1.3,0-.58.13-1.55.39-2.91l5.75-27.48h-4.8l-2.91,3.62h-.31c-.84-1.15-1.85-2.15-3.03-2.99-1.18-.84-2.87-1.26-5.08-1.26-2.57,0-5.05.64-7.44,1.93-2.39,1.29-4.54,3.07-6.46,5.35-1.92,2.28-3.43,4.96-4.53,8.03,0,0,0,0,0,.01-.8,2.41-1.62,4.64-2.47,6.48-4.64,9.98-13.19,22.26-24.42,20.52-3.11-.48-8.69-3.27-11.71-4.94-.5-.28-.79.15-.71-.98,8.98-8.33,13.33-20.32,15.94-33.33,11.89-5.89,21.45-16.47,27.93-29.16,3.75-7.35,11.75-28.32-.4-32.6-17.24-6.07-29.89,22.84-35.22,36.81-3.15,8.26-5.35,17.15-8.6,25.26-29.71-2.03-25.4-42.52-7.26-55.11,7.99-5.54,17.17-6.16,26.76-3.76l-.24-2.9c-8-1.02-15.35-1.55-22.86,1.01-16.73,5.69-31.08,25.18-21.89,47.1,4.82,11.5,15.35,15.45,25.24,16.52l-7.9,25.18c-8.49-3.33-17.2-9.52-26.13-6.65-6.43,2.06-9.21,9.84-3.11,15.64,9.02,8.57,25.77,4.44,34.22-1.2,12.4,7.55,23.04,8.97,32.97-1.39,1.84-1.92,5.83-7.55,7.99-11.79l.37,2.1c.2,1.93.61,3.58,1.23,4.94.92,2,2.15,3.45,3.7,4.37,1.55.92,3.24,1.38,5.08,1.38,2.26,0,4.36-.63,6.3-1.89,1.94-1.26,3.83-3.1,5.67-5.51h.47c-.05.58-.12,1.13-.2,1.65-.08.53-.12,1.02-.12,1.5,0,1.47.42,2.52,1.26,3.15.84.63,2.02.94,3.54.94,1.99,0,3.73-.41,5.2-1.22,1.47-.81,2.74-1.85,3.82-3.11,1.08-1.26,2.03-2.57,2.87-3.94,0,0,1.41-2.26,3.01-5.63l-5.79,27.72H45.87l-.54,2.64h133.49l.63-2.52c-3.15,0-5.26-.43-6.34-1.3-1.08-.87-1.61-1.77-1.61-2.72,0-.47.04-1.04.12-1.69.08-.66.14-1.17.2-1.54l1.82-8.79c.66.38,1.55.79,2.67,1.23,1.47.58,3.02.87,4.65.87,3.88,0,7.39-1.05,10.51-3.15,3.12-2.1,5.62-5,7.48-8.7,1.86-3.7,2.8-8.02,2.8-12.95,0-3.15-.49-5.75-1.46-7.8ZM111.12,67.76c1.93-7.82,6.35-26.73,14.27-28.22,11.22-2.11,8.55,14.18,6.65,21.22-3.38,12.5-10.97,23.83-20.35,30.8-.89.67-5.7,4.23-6.36,3.59,2.03-9.08,3.56-18.39,5.79-27.39ZM56.55,137.49c-8.37-3.26-9.87-12.78-1.1-14.37,6.65-1.21,14.98,1.89,20.9,6.33.55.41,1.52.98,1.46,1.86-4.17,7.64-13.69,9.13-21.27,6.18ZM151.51,110.72c-.26,1.63-.58,3.24-.94,4.84-.37,1.6-.68,2.93-.95,3.98-.53,1.94-1.27,3.65-2.24,5.12-.97,1.47-2.11,2.63-3.43,3.46-1.31.84-2.73,1.26-4.25,1.26s-2.83-.62-3.78-1.85c-.94-1.23-1.42-3.58-1.42-7.05,0-2.62.26-5.18.79-7.68.52-2.49,1.3-4.76,2.32-6.81,1.02-2.05,2.26-3.66,3.7-4.84,1.44-1.18,3-1.77,4.69-1.77,1.99,0,3.48.74,4.45,2.2.97,1.47,1.46,3.15,1.46,5.04,0,1.1-.13,2.47-.39,4.09ZM191.77,121.35c-1.02,3.15-2.47,5.58-4.33,7.28-1.86,1.71-4.03,2.56-6.5,2.56-1.63,0-3.02-.34-4.17-1.02-.91-.54-1.67-1.07-2.28-1.61l3.92-18.96c.57-1.25,1.2-2.45,1.9-3.6.89-1.47,1.96-2.68,3.19-3.62,1.23-.94,2.66-1.42,4.29-1.42.73,0,1.54.22,2.4.67.87.45,1.6,1.34,2.2,2.68.6,1.34.91,3.3.91,5.87,0,4.31-.51,8.03-1.54,11.18Z"/>
  <path class="st1" d="M88.69,84.85c.28-.87.56-1.75.84-2.64h-17.77c.24.86.54,1.75.92,2.64h16.02Z"/>
  <path class="st1" d="M129.98,82.21c-.64.9-1.29,1.78-1.96,2.64h75.98l.65-2.64h-74.68Z"/>
  <path class="st1" d="M112.33,82.21c-.15.77-.31,1.54-.46,2.31-.02.11-.04.22-.07.33h1.26c.88-.84,1.75-1.72,2.58-2.64h-3.32Z"/>
  <path class="st1" d="M303.18,117.14c2.65-.6,5.17-1.48,7.56-2.64,2.39-1.15,4.34-2.64,5.87-4.45,1.52-1.81,2.28-3.98,2.28-6.5,0-2.15-.5-3.75-1.5-4.8-1-1.05-2.19-1.74-3.58-2.09-1.39-.34-2.72-.51-3.98-.51-3.36,0-6.37.72-9.02,2.17-2.65,1.44-4.91,3.39-6.77,5.83-1.86,2.44-3.3,5.12-4.29,8.03-.92,2.67-1.41,5.34-1.48,7.99-.75,1.34-1.6,2.66-2.55,3.86-.2.25-.32.46-.4.64-1.04,1.19-2.26,2.21-3.66,3.06-1.65,1-3.74,1.5-6.26,1.5-1.79,0-3.27-.33-4.45-.98-1.18-.66-2.06-1.72-2.64-3.19-.58-1.47-.87-3.44-.87-5.91,0-2.31.26-4.65.79-7.01.52-2.36,1.29-4.54,2.28-6.54,1-1.99,2.24-3.58,3.74-4.76,1.5-1.18,3.24-1.77,5.24-1.77,1.21,0,2.11.21,2.72.63.6.42.91.92.91,1.5,0,.63-.24,1.41-.71,2.32-.47.92-.71,1.9-.71,2.95s.3,1.76.91,2.28c.6.53,1.43.79,2.48.79,1.63,0,2.85-.58,3.66-1.73.81-1.15,1.22-2.55,1.22-4.17,0-2.52-.92-4.4-2.76-5.63-1.84-1.23-4.09-1.85-6.77-1.85-2.83,0-5.53.64-8.07,1.93-2.55,1.29-4.79,3.06-6.73,5.32-1.94,2.26-3.46,4.87-4.57,7.84-1.1,2.97-1.65,6.13-1.65,9.49,0,.58.02,1.15.06,1.7-.58.94-1.21,1.86-1.89,2.72,0,0,0,0,0,0-.36.42-.82.93-1.36,1.55-.55.63-1.17,1.17-1.85,1.61-.68.45-1.44.67-2.28.67-.63,0-1.05-.17-1.26-.51-.21-.34-.32-.77-.32-1.3,0-.58.13-1.55.39-2.91l5.75-27.48h-4.8l-2.91,3.62h-.32c-.84-1.15-1.85-2.15-3.03-2.99-1.18-.84-2.87-1.26-5.08-1.26-2.57,0-5.05.64-7.44,1.93-2.39,1.29-4.54,3.07-6.46,5.35-1.92,2.28-3.43,4.96-4.53,8.03-1.1,3.07-1.65,6.39-1.65,9.96,0,.22,0,.43.01.65-.63,1.06-1.32,2.09-2.08,3.05-.03.03-.05.06-.07.09-.63.68-1.41,1.5-2.35,2.47-.94.97-2.1,1.46-3.46,1.46-.47,0-.85-.12-1.14-.35-.29-.24-.43-.62-.43-1.14,0-.37.05-.92.16-1.65.1-.73.21-1.31.32-1.73l9.72-49.27h-2.2l-11.89.87v2.36c1.05-.1,1.92-.16,2.6-.16,1.05,0,1.72.26,2.01.79.29.53.43,1.05.43,1.57,0,.63-.08,1.47-.24,2.52l-8.15,39.66c-.21,1.21-.43,2.53-.67,3.98-.24,1.44-.35,2.67-.35,3.66,0,1.37.43,2.45,1.3,3.27.87.81,2.27,1.22,4.21,1.22,2.1,0,3.88-.42,5.35-1.26,1.47-.84,2.73-1.89,3.78-3.15,1.05-1.26,2.02-2.52,2.91-3.78,0,0,.21-.34.56-.94.23,1.37.58,2.58,1.06,3.62.92,2,2.15,3.45,3.7,4.37,1.55.92,3.24,1.38,5.08,1.38,2.26,0,4.36-.63,6.3-1.89,1.94-1.26,3.83-3.1,5.67-5.51h.47c-.05.58-.12,1.13-.2,1.65-.08.53-.12,1.02-.12,1.5,0,1.47.42,2.52,1.26,3.15.84.63,2.02.94,3.54.94,1.99,0,3.73-.41,5.2-1.22,1.47-.81,2.74-1.85,3.82-3.11,1.08-1.26,2.03-2.57,2.87-3.94,0,0,.2-.32.53-.89.21.88.48,1.72.81,2.51.89,2.13,2.26,3.79,4.09,5,1.84,1.21,4.17,1.81,7.01,1.81,2.47,0,4.69-.45,6.65-1.34,1.97-.89,3.69-2.06,5.16-3.5,1.47-1.44,2.76-3,3.86-4.69,0,0,.37-.59.93-1.6.2,1.38.53,2.7,1.01,3.96.81,2.15,2.14,3.89,3.98,5.2,1.84,1.31,4.28,1.97,7.32,1.97,2.78,0,5.54-.71,8.27-2.13,2.73-1.42,5.28-3.94,7.64-7.56l-1.73-1.34c-1.52,1.89-3.16,3.24-4.92,4.06-1.76.81-3.66,1.22-5.71,1.22-2.47,0-4.41-.71-5.83-2.13-1.42-1.42-2.13-4.02-2.13-7.8,0-.36.01-.72.03-1.08,2.12-.18,4.38-.53,6.78-1.08ZM297.23,112.73c.58-2.34,1.39-4.53,2.44-6.58,1.05-2.05,2.26-3.74,3.62-5.08,1.36-1.34,2.83-2.01,4.41-2.01,1.1,0,1.89.35,2.36,1.06s.71,1.75.71,3.11c0,2.47-.68,4.62-2.05,6.46-1.37,1.84-3.16,3.28-5.39,4.33-1.99.94-4.22,1.49-6.69,1.68.14-.97.34-1.96.59-2.98ZM245.8,110.72c-.26,1.63-.58,3.24-.95,4.84-.37,1.6-.68,2.93-.94,3.98-.53,1.94-1.27,3.65-2.24,5.12-.97,1.47-2.11,2.63-3.43,3.46-1.31.84-2.73,1.26-4.25,1.26s-2.83-.62-3.78-1.85c-.95-1.23-1.42-3.58-1.42-7.05,0-2.62.26-5.18.79-7.68.52-2.49,1.3-4.76,2.32-6.81,1.02-2.05,2.26-3.66,3.7-4.84,1.44-1.18,3-1.77,4.69-1.77,1.99,0,3.48.74,4.45,2.2.97,1.47,1.46,3.15,1.46,5.04,0,1.1-.13,2.47-.39,4.09Z"/>
</svg>